<svg width="45.000000" height="45.000000" viewBox="0 0 45 45" fill="none" xmlns="http://www.w3.org/2000/svg" xmlns:xlink="http://www.w3.org/1999/xlink">
	<desc>
			Created with Pixso.
	</desc>
	<defs/>
	<path id="Vector" d="M30.35 28.07C31.51 26.45 32.14 24.5 32.14 22.5C32.14 20.49 31.51 18.54 30.35 16.92L33.75 13.52L35.82 15.6C36.12 15.9 36.53 16.07 36.96 16.07C37.39 16.07 37.79 15.9 38.1 15.6L44.52 9.17C44.83 8.87 44.99 8.46 44.99 8.03C44.99 7.6 44.83 7.2 44.52 6.89L38.1 0.47C37.79 0.16 37.39 0 36.96 0C36.53 0 36.12 0.16 35.82 0.47L29.39 6.89C29.09 7.2 28.92 7.6 28.92 8.03C28.92 8.46 29.09 8.87 29.39 9.17L31.47 11.25L28.07 14.64C26.45 13.48 24.5 12.85 22.5 12.85C20.49 12.85 18.54 13.48 16.92 14.64L12.85 10.58L12.85 0L0 0L0 12.85L10.58 12.85L14.64 16.92C13.48 18.54 12.85 20.49 12.85 22.5C12.85 24.5 13.48 26.45 14.64 28.07L11.25 31.47L9.17 29.39C8.87 29.09 8.46 28.92 8.03 28.92C7.6 28.92 7.2 29.09 6.89 29.39L0.47 35.82C0.16 36.12 0 36.53 0 36.96C0 37.39 0.16 37.79 0.47 38.1L6.89 44.52C7.2 44.83 7.6 44.99 8.03 44.99C8.46 44.99 8.87 44.83 9.17 44.52L15.6 38.1C15.9 37.79 16.07 37.39 16.07 36.96C16.07 36.53 15.9 36.12 15.6 35.82L13.52 33.75L16.92 30.35C18.54 31.51 20.49 32.14 22.5 32.14C24.5 32.14 26.45 31.51 28.07 30.35L32.14 34.41L32.14 45L45 45L45 32.14L34.41 32.14L30.35 28.07ZM36.96 3.87L41.12 8.03L36.96 12.19L32.8 8.03L36.96 3.87ZM8.03 41.12L3.87 36.96L8.03 32.8L12.19 36.96L8.03 41.12ZM9.64 9.64L3.21 9.64L3.21 3.21L9.64 3.21L9.64 9.64ZM16.07 22.5C16.07 21.22 16.44 19.98 17.15 18.92C17.86 17.87 18.86 17.04 20.03 16.56C21.21 16.07 22.5 15.94 23.75 16.19C25 16.44 26.14 17.05 27.04 17.95C27.94 18.85 28.55 19.99 28.8 21.24C29.05 22.49 28.92 23.78 28.43 24.96C27.95 26.13 27.12 27.13 26.07 27.84C25.01 28.55 23.77 28.92 22.5 28.92C20.79 28.92 19.16 28.24 17.95 27.04C16.75 25.83 16.07 24.2 16.07 22.5ZM35.35 35.35L41.78 35.35L41.78 41.78L35.35 41.78L35.35 35.35Z" fill="#000000" fill-opacity="0.700000" fill-rule="evenodd"/>
</svg>
