<svg width="49.150421" height="36.769287" viewBox="0 0 49.1504 36.7693" fill="none" xmlns="http://www.w3.org/2000/svg" xmlns:xlink="http://www.w3.org/1999/xlink">
	<desc>
			Created with Pixso.
	</desc>
	<defs/>
	<path id="Vector" d="M46.16 20.81C42.67 25.37 34.28 34.76 24.5 34.76C14.71 34.76 6.32 25.37 2.83 20.81C2.29 20.11 2 19.26 2 18.38C2 17.5 2.29 16.64 2.83 15.95C6.32 11.39 14.71 2 24.5 2C34.28 2 42.67 11.39 46.16 15.95C47.27 17.4 47.27 19.36 46.16 20.81Z" stroke="#FFFFFF" stroke-opacity="1.000000" stroke-width="4.000000" stroke-linejoin="round"/>
	<path id="Vector" d="M24.5 25.4C20.62 25.4 17.47 22.26 17.47 18.38C17.47 14.5 20.62 11.36 24.5 11.36C28.37 11.36 31.52 14.5 31.52 18.38C31.52 22.26 28.37 25.4 24.5 25.4Z" stroke="#FFFFFF" stroke-opacity="1.000000" stroke-width="4.000000" stroke-linejoin="round"/>
</svg>
