<svg width="45.000000" height="45.000000" viewBox="0 0 45 45" fill="none" xmlns="http://www.w3.org/2000/svg" xmlns:xlink="http://www.w3.org/1999/xlink">
	<desc>
			Created with Pixso.
	</desc>
	<defs/>
	<path id="Vector" d="M29.25 22.5C29.25 26.22 26.22 29.25 22.5 29.25C18.77 29.25 15.75 26.22 15.75 22.5C15.75 18.77 18.77 15.75 22.5 15.75C26.22 15.75 29.25 18.77 29.25 22.5Z" fill="#000000" fill-opacity="0.700000" fill-rule="evenodd"/>
	<path id="Vector" d="M24.75 4.65L24.75 0L20.25 0L20.25 4.65C16.29 5.16 12.61 6.96 9.78 9.78C6.96 12.61 5.16 16.29 4.65 20.25L0 20.25L0 24.75L4.65 24.75C5.15 28.7 6.96 32.38 9.78 35.21C12.61 38.03 16.29 39.84 20.25 40.34L20.25 45L24.75 45L24.75 40.34C28.7 39.84 32.38 38.03 35.21 35.21C38.03 32.38 39.84 28.7 40.34 24.75L45 24.75L45 20.25L40.34 20.25C39.84 16.29 38.03 12.61 35.21 9.78C32.38 6.96 28.7 5.16 24.75 4.65ZM22.5 36C15.05 36 9 29.94 9 22.5C9 15.05 15.05 9 22.5 9C29.94 9 36 15.05 36 22.5C36 29.94 29.94 36 22.5 36Z" fill="#000000" fill-opacity="0.700000" fill-rule="evenodd"/>
</svg>
