<svg width="45.000000" height="45.000000" viewBox="0 0 45 45" fill="none" xmlns="http://www.w3.org/2000/svg" xmlns:xlink="http://www.w3.org/1999/xlink">
	<desc>
			Created with Pixso.
	</desc>
	<defs/>
	<path id="Vector" d="M22.5 0C16.53 0 10.8 2.37 6.59 6.59C2.37 10.8 0 16.53 0 22.5C0 28.46 2.37 34.19 6.59 38.4C10.8 42.62 16.53 45 22.5 45C28.46 45 34.19 42.62 38.4 38.4C42.62 34.19 45 28.46 45 22.5C45 16.53 42.62 10.8 38.4 6.59C34.19 2.37 28.46 0 22.5 0L22.5 0ZM11.25 11.25L33.75 11.25C34.15 11.25 34.54 11.33 34.9 11.49L22.5 25.96L10.09 11.49C10.46 11.33 10.85 11.24 11.25 11.25ZM8.43 30.93L8.43 14.06L8.44 13.88L16.68 23.5L8.53 31.66C8.46 31.42 8.43 31.18 8.43 30.93ZM33.75 33.75L11.25 33.75C11 33.75 10.75 33.71 10.52 33.65L18.52 25.64L22.5 30.28L26.47 25.64L34.48 33.65C34.24 33.71 34 33.75 33.75 33.75L33.75 33.75ZM36.56 30.93C36.56 31.18 36.52 31.42 36.46 31.66L28.31 23.5L36.55 13.88L36.56 14.06L36.56 30.93Z" fill="#4D4D4D" fill-opacity="1.000000" fill-rule="evenodd"/>
</svg>
