<svg width="45.000000" height="45.000000" viewBox="0 0 45 45" fill="none" xmlns="http://www.w3.org/2000/svg" xmlns:xlink="http://www.w3.org/1999/xlink">
	<desc>
			Created with Pixso.
	</desc>
	<defs/>
	<path id="Vector" d="M22.5 0C10.07 0 0 10.07 0 22.5C0 34.92 10.07 45 22.5 45C34.92 45 45 34.92 45 22.5C45 10.07 34.92 0 22.5 0ZM14.41 8.93C14.87 8.91 15.29 9.18 15.61 9.67L18.69 15.51C19.01 16.2 18.83 16.94 18.34 17.43L16.93 18.84C16.85 18.96 16.79 19.1 16.79 19.24C17.33 21.33 18.97 23.26 20.41 24.59C21.86 25.92 23.41 27.71 25.43 28.14C25.68 28.21 25.99 28.23 26.16 28.07L27.8 26.4C28.37 25.97 29.18 25.76 29.79 26.12L29.81 26.12L35.37 29.39C36.18 29.9 36.26 30.89 35.68 31.49L31.86 35.28C31.29 35.86 30.54 36.06 29.81 36.06C26.59 35.96 23.55 34.38 21.04 32.75C16.94 29.77 13.17 26.06 10.81 21.59C9.9 19.71 8.84 17.31 8.94 15.22C8.95 14.43 9.16 13.66 9.72 13.15L13.54 9.33C13.84 9.07 14.13 8.95 14.41 8.93Z" fill="#FFFFFF" fill-opacity="1.000000" fill-rule="evenodd"/>
</svg>
