<svg width="20.000000" height="20.000000" viewBox="0 0 20 20" fill="none" xmlns="http://www.w3.org/2000/svg" xmlns:xlink="http://www.w3.org/1999/xlink">
	<desc>
			Created with Pixso.
	</desc>
	<defs/>
	<path id="Vector" d="M13.12 10C13.12 10.82 12.79 11.62 12.2 12.2C11.62 12.79 10.82 13.12 10 13.12C9.17 13.12 8.37 12.79 7.79 12.2C7.2 11.62 6.87 10.82 6.87 10C6.87 9.82 6.89 9.64 6.92 9.47L5.83 9.47L5.83 13.64C5.83 13.93 6.06 14.16 6.35 14.16L13.64 14.16C13.78 14.16 13.91 14.11 14.01 14.01C14.11 13.91 14.16 13.78 14.16 13.64L14.16 9.47L13.07 9.47C13.1 9.64 13.12 9.82 13.12 10ZM10 12.08C10.27 12.08 10.54 12.02 10.79 11.92C11.05 11.81 11.27 11.66 11.47 11.47C11.66 11.27 11.82 11.04 11.92 10.79C12.02 10.54 12.08 10.27 12.08 9.99C12.08 9.72 12.02 9.45 11.92 9.2C11.81 8.94 11.66 8.71 11.47 8.52C11.27 8.33 11.04 8.17 10.79 8.07C10.54 7.96 10.27 7.91 9.99 7.91C9.44 7.91 8.91 8.13 8.52 8.52C8.13 8.91 7.91 9.44 7.91 10C7.91 10.55 8.13 11.08 8.52 11.47C8.91 11.86 9.44 12.08 10 12.08ZM12.5 7.81L13.74 7.81C13.83 7.81 13.91 7.77 13.97 7.72C14.02 7.66 14.06 7.58 14.06 7.5L14.06 6.25C14.06 6.16 14.02 6.08 13.97 6.02C13.91 5.97 13.83 5.93 13.74 5.93L12.5 5.93C12.41 5.93 12.33 5.97 12.27 6.02C12.21 6.08 12.18 6.16 12.18 6.25L12.18 7.5C12.18 7.67 12.32 7.81 12.5 7.81ZM10 0C7.34 0 4.8 1.05 2.92 2.92C1.05 4.8 0 7.34 0 10C0 12.65 1.05 15.19 2.92 17.07C4.8 18.94 7.34 20 10 20C11.31 20 12.61 19.74 13.82 19.23C15.04 18.73 16.14 17.99 17.07 17.07C17.99 16.14 18.73 15.04 19.23 13.82C19.74 12.61 20 11.31 20 10C20 8.68 19.74 7.38 19.23 6.17C18.73 4.95 17.99 3.85 17.07 2.92C16.14 2 15.04 1.26 13.82 0.76C12.61 0.25 11.31 0 10 0ZM15.2 14.05C15.2 14.68 14.68 15.2 14.05 15.2L5.94 15.2C5.31 15.2 4.79 14.68 4.79 14.05L4.79 5.94C4.79 5.31 5.31 4.79 5.94 4.79L14.05 4.79C14.68 4.79 15.2 5.31 15.2 5.94L15.2 14.05Z" fill="#FFFFFF" fill-opacity="1.000000" fill-rule="evenodd"/>
</svg>
