<svg width="18.229156" height="18.229248" viewBox="0 0 18.2292 18.2292" fill="none" xmlns="http://www.w3.org/2000/svg" xmlns:xlink="http://www.w3.org/1999/xlink">
	<desc>
			Created with Pixso.
	</desc>
	<defs/>
	<path id="Vector" d="M9.11 0C4.08 0 0 4.08 0 9.11C0 14.14 4.08 18.22 9.11 18.22C14.14 18.22 18.22 14.14 18.22 9.11C18.22 4.08 14.14 0 9.11 0ZM13.49 6.87C13.5 6.96 13.5 7.06 13.5 7.16C13.5 10.15 11.22 13.59 7.06 13.59C5.78 13.59 4.6 13.21 3.59 12.57C3.78 12.59 3.95 12.6 4.14 12.6C5.2 12.6 6.17 12.24 6.94 11.64C5.95 11.62 5.12 10.97 4.83 10.07C5.18 10.12 5.49 10.12 5.85 10.03C5.34 9.93 4.88 9.65 4.55 9.24C4.22 8.84 4.04 8.33 4.04 7.81L4.04 7.78C4.34 7.95 4.69 8.06 5.06 8.07C4.75 7.86 4.5 7.58 4.32 7.26C4.15 6.93 4.06 6.56 4.06 6.19C4.06 5.77 4.17 5.38 4.36 5.05C4.93 5.75 5.64 6.32 6.44 6.73C7.24 7.13 8.12 7.37 9.02 7.41C8.7 5.88 9.85 4.63 11.23 4.63C11.88 4.63 12.47 4.91 12.88 5.35C13.39 5.25 13.88 5.06 14.31 4.8C14.15 5.33 13.79 5.77 13.32 6.05C13.78 6 14.22 5.87 14.62 5.69C14.32 6.15 13.93 6.55 13.49 6.87Z" fill="#FFFFFF" fill-opacity="1.000000" fill-rule="evenodd"/>
</svg>
