<svg width="17.359375" height="17.255127" viewBox="0 0 17.3594 17.2551" fill="none" xmlns="http://www.w3.org/2000/svg" xmlns:xlink="http://www.w3.org/1999/xlink">
	<desc>
			Created with Pixso.
	</desc>
	<defs/>
	<path id="Vector" d="M8.67 0C3.88 0 0 3.88 0 8.67C0 13.01 3.17 16.6 7.32 17.25L7.32 11.18L5.11 11.18L5.11 8.67L7.32 8.67L7.32 6.76C7.32 4.59 8.61 3.38 10.6 3.38C11.55 3.38 12.54 3.55 12.54 3.55L12.54 5.69L11.44 5.69C10.37 5.69 10.03 6.36 10.03 7.05L10.03 8.67L12.44 8.67L12.05 11.18L10.03 11.18L10.03 17.25C14.18 16.6 17.35 13.01 17.35 8.67C17.35 3.88 13.47 0 8.67 0Z" fill="#FFFFFF" fill-opacity="1.000000" fill-rule="evenodd"/>
</svg>
